<?xml version="1.0" encoding="UTF-8" standalone="no"?>
<svg width="94px" height="92px" viewBox="0 0 94 92" version="1.1" xmlns="http://www.w3.org/2000/svg" xmlns:xlink="http://www.w3.org/1999/xlink" xmlns:sketch="http://www.bohemiancoding.com/sketch/ns">
    <!-- Generator: Sketch 3.2.1 (9977) - http://www.bohemiancoding.com/sketch -->
    <title>Shape</title>
    <desc>Created with Sketch.</desc>
    <defs></defs>
    <g id="Page-1" stroke="none" stroke-width="1" fill="none" fill-rule="evenodd" sketch:type="MSPage">
        <g id="noun_35990_cc" sketch:type="MSLayerGroup" fill="#4A90E2">
            <path d="M88.425,61.287 C83.694,60.318 67.399,55.128 64.352,54.15 C64.421,53.452 64.456,52.75 64.456,52.034 C64.456,46.635 62.483,41.698 59.22,37.907 C70.273,13.92 40.588,2.111 34.195,1.116 C27.648,0.099 26.195,3.591 27.797,8.683 C29.172,13.06 32.269,28.422 33.112,32.63 C27.948,35.204 23.96,39.778 22.157,45.339 C-6.228,47.893 0.354,80.599 3.082,86.633 C5.806,92.674 9.524,91.984 12.915,87.86 C15.991,84.116 28.268,72.08 30.498,69.898 C33.989,72.302 38.217,73.71 42.778,73.71 C44.135,73.71 45.467,73.585 46.754,73.346 C62.3,96.68 87.896,75.757 91.937,70.551 C96.001,65.317 93.653,62.355 88.425,61.287 L88.425,61.287 Z M34.173,40.856 C36.551,39.016 39.537,37.924 42.779,37.924 C47.973,37.924 52.506,40.725 54.956,44.902 C53.415,43.828 52.28,43.788 51.568,43.972 C49.386,41.593 46.257,40.106 42.778,40.106 C40.22,40.106 37.851,40.908 35.909,42.288 L35.9,42.288 C34.347,42.379 34.121,41.525 34.173,40.856 L34.173,40.856 Z M50.542,52.034 C50.542,56.323 47.07,59.797 42.779,59.797 C38.489,59.797 35.015,56.323 35.015,52.034 C35.015,47.744 38.489,44.27 42.779,44.27 C47.07,44.271 50.542,47.744 50.542,52.034 L50.542,52.034 Z M36.367,64.603 C31.799,62.272 28.669,57.52 28.669,52.035 C28.669,49.202 29.502,46.567 30.934,44.359 C30.658,46.188 31.266,47.134 31.719,47.57 C31.156,48.949 30.85,50.454 30.85,52.035 C30.85,56.612 33.431,60.589 37.214,62.584 C37.83,63.918 36.996,64.42 36.367,64.603 L36.367,64.603 Z M40.915,66.021 C42.792,65.514 43.434,64.546 43.652,63.926 C49.833,63.486 54.707,58.331 54.707,52.033 C54.707,51.326 54.646,50.633 54.524,49.96 C54.529,49.955 54.529,49.947 54.532,49.939 C55.026,48.433 55.929,48.564 56.532,48.869 C56.766,49.887 56.889,50.947 56.889,52.034 C56.889,59.827 50.574,66.144 42.779,66.144 C42.146,66.145 41.526,66.101 40.915,66.021 L40.915,66.021 Z" id="Shape" sketch:type="MSShapeGroup"></path>
        </g>
    </g>
</svg>