<?xml version="1.0" encoding="utf-8"?>
<!-- Generator: Adobe Illustrator 18.1.0, SVG Export Plug-In . SVG Version: 6.00 Build 0)  -->
<svg version="1.1" id="Livello_1" xmlns:sketch="http://www.bohemiancoding.com/sketch/ns"
	 xmlns="http://www.w3.org/2000/svg" xmlns:xlink="http://www.w3.org/1999/xlink" x="0px" y="0px" viewBox="-327.5 379.9 206 82"
	 enable-background="new -327.5 379.9 206 82" xml:space="preserve">
<title>noun_64059_cc</title>
<desc>Created with Sketch.</desc>
<g>
	<path fill="#4A90E2" d="M-192.1,411.3c0,1.6,0.9,4.7-3.9,7.5c0.4,0.8,0.9,1.5,1.5,2.1c1.9,2.3,4.6,3.9,7.6,3.9c0.1,0,0.1,0,0.2,0
		c0.1,0,0.1,0,0.2,0c3,0,5.7-1.6,7.6-3.9c0.6-0.6,1.1-1.3,1.5-2.1c-4.8-2.8-3.9-5.9-3.9-7.5c5.9,0,6.6-2.4,12.4-2.2
		c-11.4-4.4-0.1-26.6-17.8-27c-17.6,0.4-6.3,22.6-17.8,27C-198.7,408.9-198,411.3-192.1,411.3z"/>
	<path fill="#4A90E2" d="M-168.5,421.7c-1.5-0.3-2.8-0.6-4-1s-2.3-0.8-3.2-1.2c-0.4,0.8-0.9,1.6-1.5,2.3c-2.3,2.9-5.6,4.9-9.4,4.9
		c-0.1,0-0.1,0-0.2,0c-0.1,0-0.1,0-0.2,0c-3.8,0-7.1-2-9.4-4.9c-0.6-0.7-1.1-1.5-1.5-2.3c-0.9,0.4-2,0.8-3.2,1.2s-2.5,0.7-4,1
		c0,0-5.5,3.4-5.5,11c0,7.7,1.1,10.9,1.1,28.8h3h9.8h9.8h9.8h9.8h3c0-17.9,1.1-21.1,1.1-28.8C-163,425.1-168.5,421.7-168.5,421.7z"
		/>
	<path fill="#4A90E2" d="M-161.2,461.7h39.7c0-38.5-3.4-40.5-3.4-40.5c-4.1-1.6-12.5-4.3-14.2-5.6l-0.7-0.8c0,0-3.8,5.6-6.2,18.4
		l-2-15.1l1.4-2.2c6.4-1.5,5.6-3.8,5.6-3.8v-3.7c1.3-2,1.9-5,1.9-5c0.6-0.6,1.3-0.1,1.5-1.8c0.2-1.7,0.2-3.7,0.4-5.3
		c0.2-1.7-1-1.3-1-1.3s0.3-2.9-1-8.2c-0.5-2-0.9-3.4-2.5-4.5c-2.2-1.4-3.6-2-7.5-2c-4,0-5.3,0.6-7.5,2c-1.6,1-2,2.5-2.5,4.5
		c-1.3,5.3-1,8.2-1,8.2s-1.1-0.4-1,1.3c0.2,1.7,0.1,3.6,0.4,5.3c0.2,1.7,1,1.2,1.5,1.8c0,0,0.6,3,1.9,5v3.7c0,0-0.8,2.3,5.6,3.8
		l1.4,2.2l-2,15.1c-2.4-12.9-6.2-18.4-6.2-18.4l-0.7,0.8c-1,0.8-4.5,2.1-8,3.4h0.1l0.5,0.3c0.3,0.2,6.9,4.4,6.9,13.6
		c-0.3,3.7-0.6,8.5-0.8,13.5C-160.9,451.7-161.2,457.2-161.2,461.7z"/>
	<path fill="#4A90E2" d="M-213.7,432.9c0-9.2,6.6-13.4,6.9-13.6l0.5-0.3h0.1c-3.5-1.3-7-2.6-8-3.4l-0.7-0.8c0,0-3.8,5.5-6.2,18.4
		l-2-15.1l1.4-2.2c6.4-1.5,5.6-3.8,5.6-3.8v-3.7c1.3-2,1.9-5,1.9-5c0.5-0.6,1.3-0.1,1.5-1.8c0.3-1.7,0.2-3.6,0.4-5.3
		c0.1-1.7-1-1.3-1-1.3s0.3-2.9-1-8.2c-0.5-2-0.9-3.5-2.5-4.5c-2.2-1.4-3.5-2-7.5-2c-0.1,0-0.1,0-0.2,0c-0.1,0-0.1,0-0.2,0
		c-4,0-5.3,0.6-7.5,2c-1.6,1-2,2.5-2.5,4.5c-1.3,5.3-1,8.2-1,8.2s-1.1-0.4-1,1.3c0.2,1.7,0.1,3.6,0.4,5.3c0.2,1.7,1,1.2,1.5,1.8
		c0,0,0.6,3,1.9,5v3.7c0,0-0.8,2.3,5.6,3.8l1.4,2.2l-2,15.1c-2.4-12.9-6.2-18.4-6.2-18.4l-0.7,0.8c-1,0.8-4.5,2.1-8,3.4h0.1l0.5,0.3
		c0.3,0.2,6.9,4.4,6.9,13.6c-0.3,3.7-0.6,8.5-0.8,13.5c-0.3,5.3-0.6,10.8-0.6,15.3h12.2h12.2c0-4.5-0.3-10-0.6-15.3
		C-213.1,441.4-213.4,436.6-213.7,432.9z"/>
	<path fill="#4A90E2" d="M-267.6,411.3c0,1.6,0.9,4.7-3.9,7.5c0.4,0.8,0.9,1.5,1.5,2.1c1.9,2.3,4.6,3.9,7.6,3.9c0.1,0,0.1,0,0.2,0
		c0.1,0,0.1,0,0.2,0c3,0,5.7-1.6,7.6-3.9c0.6-0.6,1.1-1.3,1.5-2.1c-4.8-2.8-3.9-5.9-3.9-7.5c5.9,0,6.6-2.4,12.4-2.2
		c-11.4-4.4-0.1-26.6-17.8-27c-17.6,0.4-6.3,22.6-17.8,27C-274.2,408.9-273.5,411.3-267.6,411.3z"/>
	<path fill="#4A90E2" d="M-244,421.7c-1.5-0.3-2.8-0.6-4-1s-2.3-0.8-3.2-1.2c-0.4,0.8-0.9,1.6-1.5,2.3c-2.3,2.9-5.6,4.9-9.4,4.9
		c-0.1,0-0.1,0-0.2,0c-0.1,0-0.1,0-0.2,0c-3.8,0-7.1-2-9.4-4.9c-0.6-0.7-1.1-1.5-1.5-2.3c-0.9,0.4-2,0.8-3.2,1.2s-2.5,0.7-4,1
		c0,0-5.5,3.4-5.5,11c0,7.7,1.1,10.9,1.1,28.8h3h9.8h9.8h9.8h9.8h3c0-17.9,1.1-21.1,1.1-28.8C-238.5,425.1-244,421.7-244,421.7z"/>
	<path fill="#4A90E2" d="M-289.2,432.9c0-9.2,6.6-13.4,6.9-13.6l0.5-0.3h0.1c-3.5-1.3-7-2.6-8-3.4l-0.7-0.8c0,0-3.8,5.5-6.2,18.4
		l-2-15.1l1.4-2.2c6.4-1.5,5.6-3.8,5.6-3.8v-3.7c1.3-2,1.9-5,1.9-5c0.5-0.6,1.3-0.1,1.5-1.8c0.3-1.7,0.2-3.6,0.4-5.3
		c0.1-1.7-1-1.3-1-1.3s0.3-2.9-1-8.2c-0.5-2-0.9-3.5-2.5-4.5c-2.2-1.4-3.5-2-7.5-2c-3.9,0-5.3,0.6-7.5,2c-1.6,1.1-2,2.5-2.5,4.5
		c-1.3,5.3-1,8.2-1,8.2s-1.2-0.4-1,1.3c0.2,1.6,0.2,3.6,0.4,5.3c0.2,1.7,0.9,1.2,1.5,1.8c0,0,0.6,3,1.9,5v3.7c0,0-0.8,2.3,5.6,3.8
		l1.4,2.2l-2,15.1c-2.4-12.8-6.2-18.4-6.2-18.4l-0.7,0.8c-1.7,1.3-10.1,4-14.2,5.6c0,0-3.4,2-3.4,40.5h39.7c0-4.5-0.3-10-0.6-15.3
		C-288.6,441.4-288.9,436.6-289.2,432.9z"/>
</g>
</svg>
