<?xml version="1.0" encoding="UTF-8" standalone="no"?>
<svg width="70px" height="90px" viewBox="0 0 70 90" version="1.1" xmlns="http://www.w3.org/2000/svg" xmlns:xlink="http://www.w3.org/1999/xlink" xmlns:sketch="http://www.bohemiancoding.com/sketch/ns">
    <!-- Generator: Sketch 3.2.1 (9977) - http://www.bohemiancoding.com/sketch -->
    <title>Shape</title>
    <desc>Created with Sketch.</desc>
    <defs></defs>
    <g id="Page-1" stroke="none" stroke-width="1" fill="none" fill-rule="evenodd" sketch:type="MSPage">
        <g id="noun_9687" sketch:type="MSLayerGroup" fill="#4A90E2">
            <path d="M66.093,70.096 C64.628,70.879 62.528,71.636 59.788,72.369 C57.049,73.098 54.121,73.493 51.002,73.545 C47.658,73.562 44.514,73.031 41.566,71.953 C38.624,70.876 36.074,69.15 33.922,66.779 C31.936,64.547 30.48,61.451 29.554,57.495 L62.781,57.495 L62.781,48.393 L27.701,48.393 L27.701,46.081 C27.68,44.519 27.724,43.026 27.834,41.606 L62.781,41.606 L62.781,32.506 L29.819,32.506 C30.702,28.909 32.114,25.987 34.056,23.739 C36.136,21.251 38.563,19.414 41.336,18.224 C44.111,17.036 47.068,16.446 50.206,16.454 C53.156,16.496 55.928,16.85 58.514,17.516 C61.102,18.182 63.274,18.908 65.035,19.69 L68.742,4.665 C66.324,3.586 63.413,2.668 60.005,1.914 C56.596,1.161 52.888,0.769 48.885,0.735 C42.569,0.767 36.841,1.952 31.697,4.29 C26.554,6.628 22.156,9.942 18.503,14.229 C14.229,19.074 11.25,25.166 9.565,32.506 L0.73,32.506 L0.73,41.606 L8.141,41.606 C8.098,43.051 8.055,44.494 8.012,45.938 L8.012,48.392 L0.73,48.392 L0.73,57.494 L9.306,57.494 C10.558,64.509 12.976,70.242 16.56,74.694 C20.25,79.438 24.862,83.048 30.394,85.526 C35.927,88.003 42.002,89.247 48.62,89.262 C52.903,89.212 56.843,88.704 60.432,87.745 C64.024,86.782 66.968,85.669 69.27,84.402 L66.093,70.096 L66.093,70.096 Z" id="Shape" sketch:type="MSShapeGroup"></path>
        </g>
    </g>
</svg>