<?xml version="1.0" encoding="UTF-8" standalone="no"?>
<svg width="235px" height="70px" viewBox="0 0 235 70" version="1.1" xmlns="http://www.w3.org/2000/svg" xmlns:xlink="http://www.w3.org/1999/xlink" xmlns:sketch="http://www.bohemiancoding.com/sketch/ns">
    <!-- Generator: Sketch 3.2.1 (9977) - http://www.bohemiancoding.com/sketch -->
    <title>Group</title>
    <desc>Created with Sketch.</desc>
    <defs></defs>
    <g id="Welcome" stroke="none" stroke-width="1" fill="none" fill-rule="evenodd" sketch:type="MSPage">
        <g id="grandezza" sketch:type="MSArtboardGroup" transform="translate(-387.000000, -932.000000)" stroke="#F4BB3B">
            <g id="Group" sketch:type="MSLayerGroup" transform="translate(387.000000, 920.000000)">
                <g sketch:type="MSShapeGroup">
                    <path d="M30.9262075,80.7919922 L234.108135,80.7919922 C234.108135,80.7919922 234.249714,75.1777344 222.008884,62.0449219 L1.32588222,58.3320312 L30.9262075,80.7919922 Z" id="Path-15"></path>
                    <path d="M0.845736229,58.0175781 L4.81513589,55.1679687 L34.2660181,51.5898437 L67.1936201,44.5986328 L74.9000596,44.7841797 L75.5132581,43.0410156 L85.2366964,38.8203125 L83.8897809,37.9492187 L104.196678,33.4853516 L107.489245,33.0498047 L110.844482,31.6289062 L126.624702,31.6933594 C126.624702,31.6933594 150.139322,25.1289062 160.842335,23.7011719 C171.545348,22.2734375 172.525887,32.6210937 172.525887,32.6210937 L183.786178,34.328125 L190.879419,33.3994141 L196.992121,36.2558594 L195.638457,38.2988281 L175.592766,38.2988281 L171.55981,41.0839844 L186.831924,48.0253906 L201.561221,49.2685547 L210.621325,48.8974609 L217.165002,52.2470703 L215.50763,53.6103516 L194.729265,53.6103516 L194.482443,61.609375" id="Path-16"></path>
                    <path d="M107.414042,33.0224609 L142.0048,34.0712891 L144.825899,34.2578125 L159.921573,33.2646484 L172.520102,32.4375" id="Path-17"></path>
                    <path d="M34.3580943,58.8251955 L36.8846456,56.4101562 C36.8846456,56.4101562 150.114254,52.1230469 194.738906,53.7294922" id="Path-18"></path>
                    <path d="M34.0220885,51.5253906 C34.0220885,51.5253906 87.2488745,45.3408203 113.287635,45.3408203 L161.478673,45.7128906 L172.108893,40.8183594" id="Path-19"></path>
                    <path d="M81.6992353,42.7226562 C81.6992353,42.7226562 88.9081742,39.0092773 96.2448627,37.4951172 L117.362127,39.0161133 L94.1406084,42.5766602 L81.6992353,42.7226562 Z" id="Path-20"></path>
                    <path d="M111.33427,45.3774414 C111.33427,45.3774414 135.045576,37.4106445 159.586049,38.9282227 L169.18222,42.3632812" id="Path-21"></path>
                    <path d="M138.236907,31.8276367 L167.568235,32.6665039 C167.568235,32.6665039 163.796968,27.9316406 159.654022,26.5639648 C155.511075,25.1962891 138.236907,31.8276367 138.236907,31.8276367 Z" id="Path-22"></path>
                    <path d="M34.4197998,51.3876953 L152.029535,33.9907227" id="Path-23"></path>
                    <path d="M119.684761,67.75 L214.855887,67.75" id="Path-26"></path>
                    <path d="M84.9016548,38.8286133 L96.2842723,37.4648438" id="Path-27"></path>
                    <path d="M141.652886,21.2250977 L144.773477,21.2441301 C147.042399,21.2579683 151.580242,21.2856445 151.580242,21.2856445 L158.613223,23.8925781 L144.434454,27.0205078 L141.652886,21.2250977 Z" id="Path-28"></path>
                    <path d="M144.390725,21.5 C144.239855,21.12846 144.15678,20.7222279 144.15678,20.2966089 L144.15678,15.2033911 C144.15678,13.4332308 145.593358,12 147.365466,12 C149.133969,12 150.574153,13.4342071 150.574153,15.2033911 L150.574153,20.2966089 C150.574153,20.7223076 150.49107,21.1285204 150.340219,21.5 L144.390725,21.5 Z" id="Rectangle-12"></path>
                    <path d="M138.519403,14.8718387 L144.30918,14.8718387" id="Path-29"></path>
                    <path id="Path-29" d="M150.327331,15 L150.327331,0.360589713"></path>
                    <path d="M136.258475,20.75 L144.516472,20.75" id="Path-29"></path>
                </g>
            </g>
        </g>
    </g>
</svg>