<?xml version="1.0" encoding="UTF-8" standalone="no"?>
<svg width="90px" height="90px" viewBox="0 0 90 90" version="1.1" xmlns="http://www.w3.org/2000/svg" xmlns:xlink="http://www.w3.org/1999/xlink" xmlns:sketch="http://www.bohemiancoding.com/sketch/ns">
    <!-- Generator: Sketch 3.2.1 (9977) - http://www.bohemiancoding.com/sketch -->
    <title>Shape</title>
    <desc>Created with Sketch.</desc>
    <defs></defs>
    <g id="Page-1" stroke="none" stroke-width="1" fill="none" fill-rule="evenodd" sketch:type="MSPage">
        <g id="filter-destination-icon" sketch:type="MSLayerGroup" fill="#4A90E2">
            <path d="M44.983,6.811 C66.047,6.811 83.16,23.944 83.16,45.017 C83.16,66.056 66.048,83.19 44.983,83.19 C23.952,83.19 6.806,66.056 6.806,45.017 C6.806,23.944 23.953,6.811 44.983,6.811 L44.983,6.811 Z M44.983,0 C20.135,0 0,20.144 0,45.017 C0,69.846 20.135,90 44.983,90 C69.854,90 90,69.846 90,45.017 C90,20.144 69.854,0 44.983,0 L44.983,0 L44.983,0 Z M20.369,43.787 L11.787,43.787 L11.787,46.079 L20.369,46.079 L20.369,43.787 L20.369,43.787 Z M78.18,43.787 L69.587,43.787 L69.587,46.079 L78.18,46.079 L78.18,43.787 L78.18,43.787 Z M46.113,69.562 L43.853,69.562 L43.853,78.142 L46.113,78.142 L46.113,69.562 L46.113,69.562 Z M40.264,10.283 L43.007,10.283 L45.45,14.417 C46.352,16.008 46.613,16.521 47.153,17.494 L47.014,10.283 L49.736,10.283 L49.736,21.546 L46.959,21.546 L44.833,17.962 C43.82,16.293 43.625,15.97 42.857,14.451 L42.93,21.546 L40.264,21.546 L40.264,10.283 L40.264,10.283 Z M50.649,41.739 L29.701,18.563 L39.307,48.261 L60.254,71.459 L50.649,41.739 L50.649,41.739 Z M44.983,48.044 C43.291,48.044 41.9,46.658 41.9,44.961 C41.9,43.225 43.292,41.884 44.983,41.884 C46.685,41.884 48.066,43.225 48.066,44.961 C48.066,46.658 46.686,48.044 44.983,48.044 L44.983,48.044 Z" id="Shape" sketch:type="MSShapeGroup"></path>
        </g>
    </g>
</svg>