<?xml version="1.0" encoding="UTF-8" standalone="no"?>
<svg width="60px" height="72px" viewBox="0 0 60 72" version="1.1" xmlns="http://www.w3.org/2000/svg" xmlns:xlink="http://www.w3.org/1999/xlink" xmlns:sketch="http://www.bohemiancoding.com/sketch/ns">
    <!-- Generator: Sketch 3.2.1 (9977) - http://www.bohemiancoding.com/sketch -->
    <title>Shape</title>
    <desc>Created with Sketch.</desc>
    <defs></defs>
    <g id="Page-1" stroke="none" stroke-width="1" fill="none" fill-rule="evenodd" sketch:type="MSPage">
        <g id="noun_5519_cc" sketch:type="MSLayerGroup" fill="#4A90E2">
            <g id="Your_Icon" sketch:type="MSShapeGroup">
                <path d="M51.234,52.309 C52.248,52.467 54.369,53.292 52.944,54.996 C52.396,55.602 51.78,56.181 51.081,56.683 C48.554,58.502 47.182,59.501 42.284,60.11 C42.271,60.113 42.26,60.114 42.247,60.116 C32.829,61.297 32.435,52.954 32.424,48.402 L32.424,16.746 C36.541,16.868 41.294,17.23 41.294,17.23 C41.581,17.251 41.815,17.037 41.815,16.749 L41.815,14.875 C41.815,14.587 41.583,14.323 41.296,14.289 C41.296,14.289 36.807,13.743 32.774,13.529 C35.144,12.467 36.797,10.091 36.797,7.328 C36.797,3.574 33.754,0.531 30,0.531 C26.246,0.531 23.203,3.574 23.203,7.328 C23.203,10.092 24.857,12.468 27.228,13.529 C23.195,13.743 18.704,14.289 18.704,14.289 C18.419,14.323 18.187,14.587 18.187,14.875 L18.187,16.749 C18.187,17.037 18.419,17.252 18.707,17.23 C18.707,17.23 23.46,16.868 27.577,16.746 L27.577,48.4 C27.564,52.952 27.172,61.295 17.755,60.114 C17.741,60.112 17.729,60.111 17.716,60.108 C12.82,59.5 11.447,58.501 8.919,56.681 C8.221,56.179 7.605,55.601 7.057,54.994 C5.631,53.291 7.753,52.466 8.766,52.307 C8.766,52.307 3.581,51.742 0.239,49.291 L0.239,56.705 C1.162,56.183 2.197,55.904 3.883,57.889 C3.894,57.903 3.903,57.91 3.913,57.922 C5.351,59.709 7.032,61.054 8.684,62.014 C12.753,64.375 28.156,65.955 30.002,71.467 C31.848,65.955 47.251,64.375 51.318,62.014 C52.97,61.054 54.653,59.709 56.09,57.922 C56.099,57.91 56.109,57.902 56.118,57.889 C57.805,55.905 58.842,56.183 59.762,56.705 L59.762,49.291 C56.418,51.743 51.234,52.309 51.234,52.309 L51.234,52.309 Z M30,3.942 C31.866,3.942 33.385,5.461 33.385,7.328 C33.385,9.178 31.893,10.681 30.05,10.707 L30.001,10.648 L29.953,10.709 C28.108,10.682 26.616,9.178 26.616,7.328 C26.616,5.461 28.134,3.942 30,3.942 L30,3.942 Z" id="Shape"></path>
            </g>
        </g>
    </g>
</svg>