<?xml version="1.0" encoding="UTF-8" standalone="no"?>
<svg width="84px" height="21px" viewBox="0 0 84 21" version="1.1" xmlns="http://www.w3.org/2000/svg" xmlns:xlink="http://www.w3.org/1999/xlink" xmlns:sketch="http://www.bohemiancoding.com/sketch/ns">
    <!-- Generator: Sketch 3.2.1 (9977) - http://www.bohemiancoding.com/sketch -->
    <title>Shape</title>
    <desc>Created with Sketch.</desc>
    <defs></defs>
    <g id="Page-1" stroke="none" stroke-width="1" fill="none" fill-rule="evenodd" sketch:type="MSPage">
        <g id="noun_8088_cc" sketch:type="MSLayerGroup" fill="#4A90E2">
            <path d="M79.616,9.347 L82.421,5.822 L57.486,5.822 L51.005,2.507 L44.599,2.507 L39.768,0 L13.898,1.785 L12.603,3.326 L23.724,5.17 L20.281,9.44 L7.667,9.44 L3.221,15.087 L0,15.087 L0,17.362 L6.593,20.734 L67.668,20.734 C71.241,20.734 74.049,19.579 76.038,17.117 C77.997,14.69 80.961,11.007 80.961,11.007 L82.297,11.007 L83.725,9.346 L79.616,9.346 L79.616,9.347 Z M37.188,9.44 L23.419,9.44 L26.501,5.636 C26.501,5.636 35.028,7.015 37.398,7.41 C38.939,7.667 38.729,9.44 37.188,9.44 L37.188,9.44 Z M74.713,7.223 L73.028,9.347 L69.914,9.347 L71.598,7.223 L74.713,7.223 L74.713,7.223 Z M64.903,7.223 L63.542,8.92 L60.225,7.223 L64.903,7.223 L64.903,7.223 Z M49.85,7.661 C49.85,7.661 44.728,6.85 41.122,6.22 C39.48,5.933 39.372,4.209 41.11,4.209 L45.3,4.209 L52.029,7.661 L49.85,7.661 L49.85,7.661 Z M54.541,7.62 L47.89,4.209 L50.953,4.209 L57.563,7.62 L54.541,7.62 L54.541,7.62 Z M64.994,9.347 L66.696,7.223 L69.812,7.223 L68.127,9.347 L64.994,9.347 L64.994,9.347 Z M74.814,9.347 L76.499,7.223 L79.517,7.223 L77.828,9.347 L74.814,9.347 L74.814,9.347 Z" id="Shape" sketch:type="MSShapeGroup"></path>
        </g>
    </g>
</svg>