<?xml version="1.0" encoding="utf-8"?>
<!-- Generator: Adobe Illustrator 18.1.0, SVG Export Plug-In . SVG Version: 6.00 Build 0)  -->
<svg version="1.1" id="Livello_1" xmlns:sketch="http://www.bohemiancoding.com/sketch/ns"
	 xmlns="http://www.w3.org/2000/svg" xmlns:xlink="http://www.w3.org/1999/xlink" x="0px" y="0px" viewBox="-327.5 379.9 55 82"
	 enable-background="new -327.5 379.9 55 82" xml:space="preserve">
<title>noun_64059_cc</title>
<desc>Created with Sketch.</desc>
<path fill="#4A90E2" d="M-275.9,421.2c-4.1-1.6-12.5-4.3-14.2-5.6l-0.7-0.8c0,0-3.8,5.6-6.2,18.4l-2-15.1l1.4-2.2
	c6.4-1.5,5.6-3.8,5.6-3.8v-3.7c1.3-2,1.9-5,1.9-5c0.6-0.6,1.3-0.1,1.5-1.8c0.2-1.7,0.2-3.7,0.4-5.3c0.2-1.7-1-1.3-1-1.3
	s0.3-2.9-1-8.2c-0.5-2-0.9-3.4-2.5-4.5c-2.2-1.4-3.6-2-7.3-2c-3.7,0-5.1,0.6-7.3,2c-1.6,1.1-2,2.5-2.5,4.5c-1.3,5.3-1,8.2-1,8.2
	s-1.2-0.4-1,1.3c0.2,1.6,0.2,3.6,0.4,5.3c0.2,1.7,0.9,1.2,1.5,1.8c0,0,0.6,3,1.9,5v3.7c0,0-0.8,2.3,5.6,3.8l1.4,2.2l-2,15.1
	c-2.4-12.8-6.2-18.4-6.2-18.4l-0.7,0.8c-1.7,1.3-10.1,4-14.2,5.6c0,0-3.4,2-3.4,40.5h27.5h27.5
	C-272.5,423.2-275.9,421.2-275.9,421.2z"/>
</svg>
