<?xml version="1.0" encoding="UTF-8" standalone="no"?>
<svg width="90px" height="82px" viewBox="0 0 90 82" version="1.1" xmlns="http://www.w3.org/2000/svg" xmlns:xlink="http://www.w3.org/1999/xlink" xmlns:sketch="http://www.bohemiancoding.com/sketch/ns">
    <!-- Generator: Sketch 3.2.1 (9977) - http://www.bohemiancoding.com/sketch -->
    <title>noun_64059_cc</title>
    <desc>Created with Sketch.</desc>
    <defs></defs>
    <g id="Page-1" stroke="none" stroke-width="1" fill="none" fill-rule="evenodd" sketch:type="MSPage">
        <g id="noun_64059_cc" sketch:type="MSLayerGroup" fill="#4A90E2">
            <path d="M39.1,66.5 C39.4,71.8 39.7,77.3 39.7,81.8 L0,81.8 C0,43.3 3.4,41.3 3.4,41.3 C7.5,39.7 15.9,37 17.6,35.7 L18.3,34.9 C18.3,34.9 22.1,40.5 24.5,53.3 L26.5,38.2 L25.1,36 C18.7,34.5 19.5,32.2 19.5,32.2 L19.5,28.5 C18.2,26.5 17.6,23.5 17.6,23.5 C17,22.9 16.3,23.4 16.1,21.7 C15.9,20 15.9,18 15.7,16.4 C15.5,14.7 16.7,15.1 16.7,15.1 C16.7,15.1 16.4,12.2 17.7,6.9 C18.2,4.9 18.6,3.5 20.2,2.4 C22.4,1 23.8,0.4 27.7,0.4 C31.7,0.4 33,1 35.2,2.4 C36.8,3.4 37.2,4.9 37.7,6.9 C39,12.2 38.7,15.1 38.7,15.1 C38.7,15.1 39.8,14.7 39.7,16.4 C39.5,18.1 39.6,20 39.3,21.7 C39.1,23.4 38.3,22.9 37.8,23.5 C37.8,23.5 37.2,26.5 35.9,28.5 L35.9,32.2 C35.9,32.2 36.7,34.5 30.3,36 L28.9,38.2 L30.9,53.3 C33.3,40.4 37.1,34.9 37.1,34.9 L37.8,35.7 C38.8,36.5 42.3,37.8 45.8,39.1 L45.7,39.1 L45.2,39.4 C44.9,39.6 38.3,43.8 38.3,53 C38.6,56.7 38.9,61.5 39.1,66.5 L39.1,66.5 Z M39.7,81.8 L39.7,81.8 L45.7,81.8 L45.7,81.8 L42.7,81.8 L39.7,81.8 L39.7,81.8 Z M84.5,41.9 C81.3,41.2 78.9,40.4 77,39.6 C74.5,43.5 70,46.8 65.1,46.8 C61.3,46.8 58,44.8 55.7,41.9 C55.1,41.2 54.6,40.4 54.2,39.6 C53.3,40 52.2,40.4 51,40.8 C49.8,41.2 48.5,41.5 47,41.8 C47,41.8 41.5,45.2 41.5,52.8 C41.5,60.5 42.6,63.7 42.6,81.6 L45.6,81.6 L55.4,81.6 L88.7,81.6 C88.7,63.6 89.8,60.4 89.8,52.8 C90,45.3 84.5,41.9 84.5,41.9 L84.5,41.9 Z M59.9,31.4 C59.9,33 60.8,36.1 56,38.9 C56.4,39.7 56.9,40.4 57.5,41 C59.4,43.3 62.1,44.9 65.1,44.9 C69.2,44.9 73.1,42.1 75.2,38.8 C70.7,36 71.6,33 71.6,31.5 C77.5,31.5 78.3,29.2 83.9,29.2 C72.4,24.8 84,2.2 65.7,2.2 C47.4,2.2 59,24.8 47.5,29.2 C53.3,29 54,31.4 59.9,31.4 L59.9,31.4 L59.9,31.4 Z" id="Shape" sketch:type="MSShapeGroup"></path>
        </g>
    </g>
</svg>