<?xml version="1.0" encoding="UTF-8" standalone="no"?>
<svg width="96px" height="113px" viewBox="0 0 96 113" version="1.1" xmlns="http://www.w3.org/2000/svg" xmlns:xlink="http://www.w3.org/1999/xlink" xmlns:sketch="http://www.bohemiancoding.com/sketch/ns">
    <!-- Generator: Sketch 3.2.2 (9983) - http://www.bohemiancoding.com/sketch -->
    <title>Artboard 13</title>
    <desc>Created with Sketch.</desc>
    <defs></defs>
    <g id="Welcome" stroke="none" stroke-width="1" fill="none" fill-rule="evenodd" sketch:type="MSPage">
        <g id="Artboard-13" sketch:type="MSArtboardGroup" stroke="#F4BB3B" stroke-width="4">
            <g id="Shape-2-+-Shape-+-icon_77747-3" sketch:type="MSLayerGroup" transform="translate(75.488195, 60.097604) rotate(13.000000) translate(-75.488195, -60.097604) translate(57.988195, 3.597604)">
                <path d="M1,112.929499 L1,1.47215608 L2.66592428,1.15118509 C2.74164811,1.15118509 3.12026726,0.990699594 3.80178174,0.990699594 C6.83073497,0.990699594 14.5545657,2.43506907 21.596882,15.5948798 C25.610245,22.9772127 28.7906459,33.087799 30.986637,45.4451823 C33.636971,60.209848 35,78.3447091 35,99.5287947 L35,104.985302 L1,112.929499 Z" id="Shape-2" sketch:type="MSShapeGroup"></path>
            </g>
            <g id="Shape-2-+-Shape-+-icon_77747-3" sketch:type="MSLayerGroup" transform="translate(34.289735, 72.416220) rotate(13.000000) translate(-34.289735, -72.416220) translate(21.289735, 29.416220)">
                <path d="M0.727812253,85.927788 L0.727812253,1.12708487 L1.94029235,0.881349001 C1.99540509,0.881349001 2.27096875,0.758481068 2.76698333,0.758481068 C4.97149261,0.758481068 10.5929913,1.86429246 15.7184753,11.939463 C18.6394501,17.5913879 20.9541848,25.3320676 22.5524541,34.7928985 C24.4813997,46.0967483 25.4734289,59.9808247 25.4734289,76.1993919 L25.4734289,80.3769016 L0.727812253,85.927788 Z" id="Shape-2" sketch:type="MSShapeGroup"></path>
            </g>
        </g>
    </g>
</svg>