<?xml version="1.0" encoding="UTF-8" standalone="no"?>
<svg width="121px" height="109px" viewBox="0 0 121 109" version="1.1" xmlns="http://www.w3.org/2000/svg" xmlns:xlink="http://www.w3.org/1999/xlink" xmlns:sketch="http://www.bohemiancoding.com/sketch/ns">
    <!-- Generator: Sketch 3.1.1 (8761) - http://www.bohemiancoding.com/sketch -->
    <title>icon_77747</title>
    <desc>Created with Sketch.</desc>
    <defs></defs>
    <g id="Welcome" stroke="none" stroke-width="1" fill="none" fill-rule="evenodd" sketch:type="MSPage">
        <g id="Charter" sketch:type="MSArtboardGroup" transform="translate(-269.000000, -688.000000)" stroke="#F4BB3B" stroke-width="4">
            <g id="icon_77747" sketch:type="MSLayerGroup" transform="translate(271.000000, 690.000000)">
                <path d="M50.2309744,0.567657143 C56.6124615,0.759314286 66.7550256,2.52434286 73.3105128,12.3478857 C84.2308718,28.7100571 62.3306667,51.8886857 62.3306667,51.8886857 C56.2243077,47.8 50.4986667,50.9155429 50.4986667,50.9155429 C50.4986667,50.9155429 45.4288718,36.8918857 39.1901538,19.5550857 C35.9302564,10.4981714 38.4168205,5.42891429 41.0922564,2.81851429 C41.0922564,2.81851429 43.1296923,0.714742857 45.4422564,0.566171429 C47.7577949,0.419085714 49.5914872,0.548342857 50.2309744,0.567657143 L50.2309744,0.567657143 Z" id="Shape" sketch:type="MSShapeGroup"></path>
                <path d="M114.132103,83.2283429 C111.244,88.9156571 105.329487,97.3337143 93.6402564,99.0838857 C74.1730769,101.9944 62.4927692,72.3350857 62.4927692,72.3350857 C68.7939487,68.5539429 68.4087692,62.0509714 68.4087692,62.0509714 C68.4087692,62.0509714 83.2701538,63.4341714 101.629385,65.1694857 C111.220205,66.0742857 114.753744,70.4794286 115.979179,74.008 C115.979179,74.008 117.020205,76.7446857 116.169538,78.9004571 C115.318872,81.0562286 114.420615,82.6593143 114.132103,83.2283429 L114.132103,83.2283429 Z" id="Shape" sketch:type="MSShapeGroup"></path>
                <path d="M4.21317949,97.6442286 C1.20312821,92.0193143 -2.31553846,82.3547429 2.94907692,71.7809143 C11.716,54.1752 42.7400513,61.6052571 42.7400513,61.6052571 C42.2299487,68.9328 47.7875385,72.3425143 47.7875385,72.3425143 C47.7875385,72.3425143 38.1372308,83.7171429 26.1936923,97.7556571 C19.9564615,105.089143 14.3170769,105.4576 10.7181026,104.4384 C10.7181026,104.4384 7.87907692,103.723771 6.59712821,101.790857 C5.31517949,99.8594286 4.51507692,98.2058286 4.21317949,97.6442286 L4.21317949,97.6442286 Z" id="Shape" sketch:type="MSShapeGroup"></path>
                <ellipse id="Oval" sketch:type="MSShapeGroup" cx="55.2264103" cy="62.1148571" rx="9.12384615" ry="9.11485714"></ellipse>
                <ellipse id="Oval-2" sketch:type="MSShapeGroup" cx="55.1203156" cy="62" rx="18.0177515" ry="18"></ellipse>
            </g>
        </g>
    </g>
</svg>