<?xml version="1.0" encoding="UTF-8" standalone="no"?>
<svg width="96px" height="109px" viewBox="0 0 96 109" version="1.1" xmlns="http://www.w3.org/2000/svg" xmlns:xlink="http://www.w3.org/1999/xlink" xmlns:sketch="http://www.bohemiancoding.com/sketch/ns">
    <!-- Generator: Sketch 3.1.1 (8761) - http://www.bohemiancoding.com/sketch -->
    <title>Rectangle 78 + Shape 2 + Shape + icon_77747</title>
    <desc>Created with Sketch.</desc>
    <defs></defs>
    <g id="Welcome" stroke="none" stroke-width="1" fill="none" fill-rule="evenodd" sketch:type="MSPage">
        <g id="Charter" sketch:type="MSArtboardGroup" transform="translate(-738.000000, -688.000000)">
            <g id="Rectangle-78-+-Shape-2-+-Shape-+-icon_77747" sketch:type="MSLayerGroup" transform="translate(740.000000, 690.000000)">
                <rect id="Rectangle-78" stroke="#979797" opacity="0" fill="#D8D8D8" sketch:type="MSShapeGroup" x="0" y="0" width="117" height="105"></rect>
                <g id="Shape-2-+-Shape-+-icon_77747" sketch:type="MSShapeGroup">
                    <path d="M70.8418708,105 L0,105 L0,3.47222222 L3.47884187,3.15740741 C3.63697105,3.15740741 4.42761693,3 5.85077951,3 C12.1759465,3 28.3051225,4.41666667 43.0111359,17.3240741 C51.3919822,24.5648148 58.0334076,34.4814815 62.6191537,46.6018519 C68.1536748,61.0833333 71,78.8703704 71,99.6481481 L71,105 L70.8418708,105 Z" id="Shape-2" stroke="#F4BB3B" stroke-width="4"></path>
                    <g id="Shape-+-icon_77747" transform="translate(31.000000, 0.000000)" stroke="#FFFFFF" stroke-width="3">
                        <g id="icon_77747" transform="translate(0.262295, -0.227941)">
                            <path d="M26.3009836,-0.224669118 C29.6423361,-0.125073529 34.9529918,0.792132353 38.3854508,5.89698529 C44.1033607,14.3996691 32.6363934,26.4445588 32.6363934,26.4445588 C29.4390984,24.3198529 26.4411475,25.9388603 26.4411475,25.9388603 C26.4411475,25.9388603 23.7865984,18.6513971 20.52,9.64224265 C18.8131148,4.93577206 20.115082,2.30150735 21.5159426,0.945 C21.5159426,0.945 22.5827459,-0.148235294 23.7936066,-0.225441176 C25.0060246,-0.301875 25.9661475,-0.234705882 26.3009836,-0.224669118 L26.3009836,-0.224669118 Z" id="Shape"></path>
                            <path d="M59.7596721,42.7303676 C58.247459,45.6858088 55.1506148,50.0602941 49.030123,50.9697794 C38.8370902,52.4822426 32.7212705,37.0696324 32.7212705,37.0696324 C36.0205738,35.1047426 35.8188934,31.7254412 35.8188934,31.7254412 C35.8188934,31.7254412 43.6003279,32.4442279 53.2132377,33.3459926 C58.235,33.8161765 60.0851639,36.1053309 60.7268033,37.9389706 C60.7268033,37.9389706 61.2718852,39.3611029 60.8264754,40.4813603 C60.3810656,41.6016176 59.9107377,42.4346691 59.7596721,42.7303676 L59.7596721,42.7303676 Z" id="Shape"></path>
                            <path d="M2.20602459,50.2216544 C0.629959016,47.2986397 -1.21241803,42.2763971 1.54413934,36.7816544 C6.1345082,27.6327574 22.3787295,31.4938235 22.3787295,31.4938235 C22.1116393,35.3016176 25.0215984,37.0734926 25.0215984,37.0734926 C25.0215984,37.0734926 19.9686885,42.984375 13.715041,50.2795588 C10.4492213,54.0904412 7.49643443,54.2819118 5.6120082,53.7522794 C5.6120082,53.7522794 4.1254918,53.3809191 3.4542623,52.3764706 C2.78303279,51.3727941 2.36409836,50.5134926 2.20602459,50.2216544 L2.20602459,50.2216544 Z" id="Shape"></path>
                            <ellipse id="Oval" cx="28.9165984" cy="31.7586397" rx="4.7772541" ry="4.73658088"></ellipse>
                        </g>
                    </g>
                </g>
            </g>
        </g>
    </g>
</svg>