<?xml version="1.0" encoding="UTF-8" standalone="no"?>
<svg width="434px" height="425px" viewBox="0 0 434 425" version="1.1" xmlns="http://www.w3.org/2000/svg" xmlns:xlink="http://www.w3.org/1999/xlink" xmlns:sketch="http://www.bohemiancoding.com/sketch/ns">
    <!-- Generator: Sketch 3.2.1 (9977) - http://www.bohemiancoding.com/sketch -->
    <title>Group + Group</title>
    <desc>Created with Sketch.</desc>
    <defs></defs>
    <g id="Welcome" stroke="none" stroke-width="1" fill="none" fill-rule="evenodd" sketch:type="MSPage">
        <g id="grandezza" sketch:type="MSArtboardGroup" transform="translate(-997.000000, -238.000000)">
            <g id="Group-+-Group" sketch:type="MSLayerGroup" transform="translate(998.000000, 240.000000)">
                <g id="Group" transform="translate(77.044895, 0.000000)" stroke="#F4BB3B" sketch:type="MSShapeGroup">
                    <path d="M136.112237,49.5607249 L249.408586,393.094411 L203.230642,393.612498 L152.711884,385.178585 L136.112237,49.5607249 Z" id="Path-1"></path>
                    <path d="M251.316246,393.914199 L250.525265,417.975244 C250.525265,417.975244 249.935451,421.190209 248.183798,421.190209 L27.3339928,421.190209 L0.0936686117,416.337045 L5.03798204,399.874512 L251.316246,393.914199 Z" id="Path-2"></path>
                    <path d="M109.602069,386.549131 L153.166219,385.51024 L203.383912,394.426136 L101.265297,397.290254 L109.602069,386.549131 Z" id="Path-5"></path>
                    <g id="Path-3-+-Path-4" transform="translate(30.191988, -0.603651)">
                        <path d="M121.667333,359.64606 L-0.306539222,363.708793 L13.8353193,273.140974 L28.32614,194.990703 L41.9466082,137.705622 L53.5759399,93.1670937 C53.5759399,93.1670937 64.3936723,56.6692488 88.1937964,3.86898567 C88.3887997,3.43637333 89.4119199,1.63067513 89.6086675,1.19588509" id="Path-3"></path>
                        <path d="M89.0633287,1.32011517 L95.9878308,0.54060559 L117.314202,359.371661" id="Path-4"></path>
                        <path d="M95.4842306,-0.30306677 L100.18906,-0.30306677 L106.114573,52.2215795 L123.245189,385.828571 L118.252919,385.828571 L95.4842306,-0.30306677 Z" id="Path-6"></path>
                        <path d="M88.746697,3.01155538 L95.9645667,6.54682243 L88.746697,3.01155538 Z" id="Path-7"></path>
                        <path d="M15.2421154,267.206599 L111.755442,267.206599" id="Path-8"></path>
                        <path d="M118.939955,306.643504 L190.935142,306.643504" id="Path-8"></path>
                        <path d="M31.8800791,180.682402 L106.150153,180.682402" id="Path-8"></path>
                        <path d="M53.6005725,94.1582039 L101.245526,94.1582039" id="Path-8"></path>
                        <path d="M69.0151162,48.7254917 L98.8219501,48.7254917" id="Path-8"></path>
                        <path d="M110.35412,143.08574 L136.27858,143.08574" id="Path-8"></path>
                        <path d="M114.84273,224.864622 L163.17466,224.864622" id="Path-8"></path>
                    </g>
                    <path d="M123.475705,4.50479837 L112.366396,179.175011 L87.7084627,360.967974" id="Path-30"></path>
                    <path d="M137.662724,55.2718953 L163.566656,224.42206 L188.886249,391.40366" id="Path-31"></path>
                    <path d="M120.714115,3.40993554 L107.141544,45.9976426 L91.8501634,97.0739495 L70.6743244,179.458965 L49.657229,265.655523 L29.870396,363.288073" id="Path-32"></path>
                    <path d="M121.865861,3.79559483 L113.203905,45.8802383 L101.733316,97.4534656 L84.9010287,178.820068 L61.4836217,267.072565 L30.4246298,362.769311" id="Path-33"></path>
                    <path d="M122.889141,4.27050182 L109.339321,97.9913408 L97.6908303,178.795495 L74.7934452,265.811152 L30.3247309,363.008215" id="Path-34"></path>
                    <path d="M112.277444,179.833703 L88.4618102,266.930588 L33.1013741,359.218515" id="Path-35"></path>
                    <path d="M112.760517,180.053495 L112.760517,265.934017 L147.021749,358.940021" id="Path-36"></path>
                    <path d="M124.399429,5.04523332 L127.214389,179.595482 L126.872269,265.412524 L147.870206,358.918178" id="Path-37"></path>
                    <path d="M99.0702568,275.998018 L29.9853482,363.042344" id="Path-38"></path>
                    <path d="M95.7345901,303.203721 L30.3254151,362.873063" id="Path-39"></path>
                    <path d="M93.604553,321.938572 L30.2652021,363.052582" id="Path-40"></path>
                    <path d="M91.7653177,335.93425 L30.3849439,363.267596" id="Path-41"></path>
                    <path d="M88.9195663,350.413879 L31.0151284,362.883302" id="Path-42"></path>
                    <path d="M89.3239517,350.312174 L146.479148,359.049234" id="Path-43"></path>
                    <path d="M91.6065742,335.975205 L146.033708,359.008962" id="Path-44"></path>
                    <path d="M93.3062247,321.84028 C93.3062247,321.84028 128.813135,346.554566 146.923903,359.180973" id="Path-45"></path>
                    <path d="M99.1742612,275.709968 L147.184598,359.096332" id="Path-46"></path>
                    <path d="M137.617564,55.0978367 L186.13287,223.720365 L215.275991,306.402987 L248.242643,392.119006" id="Path-47"></path>
                    <path d="M138.118427,56.5585639 L175.587373,223.559276 L205.250517,307.342221 L247.580299,392.47941" id="Path-48"></path>
                    <path d="M163.936146,224.460285 L190.637902,306.323807 L248.261801,392.222759" id="Path-49"></path>
                    <path d="M176.446778,308.439814 L249.002148,393.360625" id="Path-50"></path>
                    <path d="M180.293571,333.879675 L249.862921,393.639801" id="Path-51"></path>
                    <path d="M182.572088,350.571556 L248.163271,393.500554" id="Path-52"></path>
                    <path d="M184.79655,363.984308 L249.085625,392.823432" id="Path-53"></path>
                    <path d="M186.028181,372.873584 L251.346352,394.019317" id="Path-54"></path>
                    <path d="M187.709357,383.600373 L251.067183,393.639801" id="Path-55"></path>
                    <path d="M187.717568,383.436553 L165.876648,387.593482" id="Path-56"></path>
                    <path d="M185.976863,372.673587 L155.454315,385.833784" id="Path-57"></path>
                    <path d="M184.416797,363.849157 L153.302382,384.839261" id="Path-58"></path>
                    <path d="M182.699357,350.724454 L153.197694,378.672125" id="Path-59"></path>
                    <path d="M180.352416,333.280368 L152.717358,373.020339" id="Path-60" fill="#D8D8D8"></path>
                    <path d="M176.155292,309.115571 L152.347868,360.236928" id="Path-61"></path>
                    <path d="M163.818457,225.598833 L161.554993,306.744278 L151.517202,343.449487" id="Path-62"></path>
                    <path d="M136.665103,51.177081 L151.989327,224.741509 L147.003959,257.356681" id="Path-63"></path>
                    <path d="M126.086763,6.70271504 L136.342142,386.273367" id="Path-64"></path>
                    <path d="M1.20213633,412.779423 L251.414776,410.303013" id="Path-65"></path>
                    <path d="M95.8303836,303.029663 L147.044329,359.226023" id="Path-66"></path>
                </g>
                <g id="Group" transform="translate(0.000000, 272.000000)" stroke="#4990E2" sketch:type="MSShapeGroup">
                    <rect id="Rectangle-1" x="74.1355932" y="113.888889" width="7.3220339" height="3.7037037" rx="8"></rect>
                    <rect id="Rectangle-1" x="96.1016949" y="128.703704" width="7.3220339" height="3.7037037" rx="8"></rect>
                    <rect id="Rectangle-1" x="121.728814" y="128.703704" width="7.3220339" height="3.7037037" rx="8"></rect>
                    <g>
                        <path d="M55.4855005,149.6148 L432.20049,149.6148 C432.20049,149.6148 432.46299,139.218027 409.767545,114.898003 L0.604210805,108.02228 L55.4855005,149.6148 Z" id="Path-15"></path>
                        <path d="M-0.286016949,107.439959 L7.07355667,102.162905 L61.6777675,95.5367477 L122.728085,82.5900608 L137.016419,82.9336661 L138.153337,79.7055845 L156.181343,71.8894676 L153.684057,70.276331 L191.334613,62.0099103 L197.439288,61.203342 L203.660156,58.5720486 L232.917903,58.6914063 C232.917903,58.6914063 276.515824,46.5350116 296.360037,43.891059 C316.204251,41.2471065 318.022246,60.4094329 318.022246,60.4094329 L338.899695,63.5706019 L352.051112,61.8507668 L363.384534,67.1404803 L360.874735,70.9237558 L323.708476,70.9237558 L316.231065,76.0814525 L344.546743,88.9359086 L371.855998,91.2380642 L388.654131,90.5508536 L400.786613,96.7538339 L397.713718,99.2784288 L359.189023,99.2784288 L358.731396,114.091435" id="Path-16"></path>
                        <path d="M197.299854,61.1527054 L261.433792,63.0949797 L266.664327,63.4403935 L294.652873,61.6012008 L318.01152,60.0694444" id="Path-17"></path>
                        <path d="M61.8484838,108.935547 L66.5329052,104.463252 C66.5329052,104.463252 276.469346,96.5241609 359.206899,99.4990596" id="Path-18"></path>
                        <path d="M61.2255032,95.41739 C61.2255032,95.41739 159.912076,83.9644821 208.18995,83.9644821 L297.539857,84.6535012 L317.249106,75.5895544" id="Path-19"></path>
                        <path d="M149.622617,79.1160301 C149.622617,79.1160301 162.988546,72.2394025 176.591333,69.4354022 L215.744372,72.2520616 L172.689883,78.845667 L149.622617,79.1160301 Z" id="Path-20"></path>
                        <path d="M204.56826,84.032299 C204.56826,84.032299 248.530853,69.2789714 294.030787,72.0893012 L311.822828,78.4505208" id="Path-21"></path>
                        <path d="M254.447828,58.940068 L308.830376,60.4935258 C308.830376,60.4935258 301.838155,51.7252604 294.156813,49.1925275 C286.47547,46.6597946 254.447828,58.940068 254.447828,58.940068 Z" id="Path-22"></path>
                        <path d="M61.9628906,95.1623987 L280.020425,62.9457827" id="Path-23"></path>
                        <path d="M220.050715,125.462963 L396.505336,125.462963" id="Path-26"></path>
                        <path d="M155.56015,71.9048394 L176.664402,69.3793403" id="Path-27"></path>
                        <rect id="Rectangle-1" x="206.847458" y="132.407407" width="7.3220339" height="3.7037037" rx="8"></rect>
                        <rect id="Rectangle-1" transform="translate(242.542373, 134.259259) rotate(-277.000000) translate(-242.542373, -134.259259) " x="238.881356" y="132.407407" width="7.3220339" height="3.7037037" rx="8"></rect>
                        <rect id="Rectangle-1" transform="translate(249.864407, 134.259259) rotate(-277.000000) translate(-249.864407, -134.259259) " x="246.20339" y="132.407407" width="7.3220339" height="3.7037037" rx="8"></rect>
                        <rect id="Rectangle-1" transform="translate(257.186441, 134.259259) rotate(-277.000000) translate(-257.186441, -134.259259) " x="253.525424" y="132.407407" width="7.3220339" height="3.7037037" rx="8"></rect>
                        <rect id="Rectangle-4" transform="translate(169.322034, 134.259259) rotate(-277.000000) translate(-169.322034, -134.259259) " x="165.661017" y="132.407407" width="7.3220339" height="3.7037037" rx="8"></rect>
                        <rect id="Rectangle-2" transform="translate(176.644068, 134.259259) rotate(-277.000000) translate(-176.644068, -134.259259) " x="172.983051" y="132.407407" width="7.3220339" height="3.7037037" rx="8"></rect>
                        <rect id="Rectangle-3" transform="translate(183.966102, 134.259259) rotate(-277.000000) translate(-183.966102, -134.259259) " x="180.305085" y="132.407407" width="7.3220339" height="3.7037037" rx="8"></rect>
                        <rect id="Rectangle-1" x="272.745763" y="130.555556" width="7.3220339" height="3.7037037" rx="8"></rect>
                        <path d="M260.781316,39.3057364 C260.781316,39.3057364 264.638528,39.3292333 266.567134,39.3409817 C270.77389,39.3666079 279.187401,39.4178602 279.187401,39.4178602 L292.227092,44.245515 L265.938559,50.0379774 L260.781316,39.3057364 Z" id="Path-28"></path>
                        <path d="M265.861073,39.8148148 C265.579076,39.1227423 265.423729,38.3655981 265.423729,37.5721582 L265.423729,28.1685825 C265.423729,24.8763534 268.087255,22.2222222 271.372881,22.2222222 C274.651822,22.2222222 277.322034,24.8844984 277.322034,28.1685825 L277.322034,37.5721582 C277.322034,38.3662661 277.167068,39.123249 276.885785,39.8148148 L265.861073,39.8148148 Z" id="Rectangle-12"></path>
                        <path d="M254.971597,27.540442 L265.70629,27.540442" id="Path-29"></path>
                        <path d="M276.864407,27.7777778 L276.864407,0.667758728" id="Path-29"></path>
                        <path d="M250.779661,38.4259259 L266.090626,38.4259259" id="Path-29"></path>
                    </g>
                </g>
            </g>
        </g>
    </g>
</svg>