<?xml version="1.0" encoding="UTF-8" standalone="no"?>
<svg width="430px" height="146px" viewBox="0 0 430 146" version="1.1" xmlns="http://www.w3.org/2000/svg" xmlns:xlink="http://www.w3.org/1999/xlink" xmlns:sketch="http://www.bohemiancoding.com/sketch/ns">
    <!-- Generator: Sketch 3.1.1 (8761) - http://www.bohemiancoding.com/sketch -->
    <title>Imported EPS</title>
    <desc>Created with Sketch.</desc>
    <defs></defs>
    <g id="Welcome" stroke="none" stroke-width="1" fill="none" fill-rule="evenodd" sketch:type="MSPage">
        <g id="home" sketch:type="MSArtboardGroup" transform="translate(-504.000000, -269.000000)" fill="#FFFFFF">
            <g id="Imported-EPS" sketch:type="MSLayerGroup" transform="translate(504.000000, 270.000000)">
                <g id="Page-1" sketch:type="MSShapeGroup">
                    <path d="M33.4325,108.772607 L30.3214759,108.772607 L29.6117169,110.529821 L20.3330422,127.506232 L20.0053614,127.506232 L11.4895482,110.475071 L10.8341867,108.772607 L7.66876506,108.772607 L18.7490361,130.912464 L18.8047289,133.385339 L18.640241,143.879089 L21.4779819,143.879089 L21.3691867,133.385339 L21.4248795,130.968518 L33.4325,108.772607" id="Fill-1"></path>
                    <path d="M95.7060843,108.772607 L82.3864458,143.879089 L85.3355723,143.879089 L86.1528313,140.802661 L88.9918675,133.330589 L96.4689458,133.221089 L104.767169,133.330589 L107.387319,140.912161 L108.151476,143.879089 L111.098012,143.879089 L98.9259036,108.772607 L95.7060843,108.772607 L95.7060843,108.772607 Z M96.7979217,130.857714 L89.9749096,130.804268 L97.0712048,112.069339 L97.3975904,112.069339 L103.892922,130.804268 L96.7979217,130.857714 L96.7979217,130.857714 Z" id="Fill-2"></path>
                    <path d="M178.558795,110.970429 C181.760482,110.970429 184.634488,111.996339 187.182108,114.046857 L187.61988,113.992107 L188.219548,111.411036 C185.489307,109.468714 182.305753,108.497554 178.66759,108.497554 C173.86247,108.497554 170.159548,110.063143 167.558825,113.195625 C164.955512,116.326804 163.656446,120.768071 163.656446,126.518125 C163.656446,132.196482 164.90241,136.563446 167.395633,139.621625 C169.886265,142.6785 173.427289,144.207589 178.012229,144.207589 C181.505331,144.207589 184.815813,143.164732 187.946265,141.076411 L188.165151,138.384536 L187.728675,138.220286 C184.815813,140.527607 181.632259,141.679964 178.174127,141.679964 C174.427169,141.679964 171.551867,140.372482 169.550813,137.753607 C167.549759,135.134732 166.548584,131.334821 166.548584,126.353875 C166.548584,121.371625 167.576958,117.562589 169.633705,114.925464 C171.687861,112.288339 174.664187,110.970429 178.558795,110.970429" id="Fill-3"></path>
                    <path d="M267.795452,108.772607 L267.904247,124.814357 L257.588133,124.869107 L247.545301,124.814357 L247.654096,108.772607 L244.760663,108.772607 L244.923855,133.221089 L244.760663,143.879089 L247.598404,143.879089 L247.489608,133.055536 L247.545301,127.341982 L257.314849,127.287232 L267.904247,127.341982 L267.95994,133.221089 L267.795452,143.879089 L270.633193,143.879089 L270.578795,133.055536 L270.68759,108.772607 L267.795452,108.772607" id="Fill-4"></path>
                    <path d="M327.283102,108.772607 L327.009819,110.970429 L327.23,111.300232 L333.178765,111.134679 L337.436024,111.134679 L337.600512,133.221089 L337.436024,143.879089 L340.27506,143.879089 L340.166265,133.055536 L340.329458,111.134679 L344.588012,111.134679 L350.427982,111.300232 L350.701265,109.102411 L350.427982,108.772607 L327.283102,108.772607" id="Fill-5"></path>
                    <path d="M418.621837,127.314607 C417.439337,126.56375 415.883825,125.712518 413.955301,124.759607 C412.316898,123.9905 411.016536,123.303518 410.052922,122.698661 C409.088012,122.095107 408.278524,121.371625 407.623163,120.528214 C406.969096,119.687411 406.641416,118.698 406.641416,117.562589 C406.641416,116.501482 406.941898,115.457321 407.541566,114.431411 C408.14253,113.406804 409.015482,112.573821 410.161717,111.931161 C411.307952,111.292411 412.644578,110.970429 414.172892,110.970429 C416.430392,110.970429 418.612771,111.649589 420.723916,113.002696 L421.270482,112.838446 L421.761355,110.201321 C419.32253,109.102411 416.903133,108.552304 414.500572,108.552304 C412.426988,108.552304 410.578765,108.964232 408.961084,109.789393 C407.340813,110.61325 406.085783,111.730411 405.194699,113.140875 C404.302319,114.550036 403.856777,116.098679 403.856777,117.782893 C403.856777,119.430607 404.256988,120.842375 405.05741,122.014286 C405.857831,123.184893 406.839578,124.137804 408.005241,124.869107 C409.169608,125.603018 410.697922,126.426875 412.590181,127.341982 C414.301114,128.184089 415.637741,128.898446 416.602651,129.485054 C417.566265,130.071661 418.386114,130.812089 419.058313,131.71025 C419.731807,132.608411 420.068554,133.660393 420.068554,134.8675 C420.068554,136.042018 419.740873,137.159179 419.085512,138.220286 C418.431446,139.282696 417.502801,140.143054 416.302169,140.802661 C415.101536,141.460964 413.700151,141.790768 412.099307,141.790768 C410.716054,141.790768 409.279699,141.524839 407.787651,140.995589 C406.294307,140.463732 404.948614,139.66725 403.747982,138.603536 L403.365904,138.769089 L403.038223,141.679964 C405.658373,143.328982 408.60491,144.152839 411.880422,144.152839 C413.990271,144.152839 415.892892,143.723964 417.584398,142.862304 C419.278494,142.00325 420.587922,140.828732 421.515271,139.346571 C422.443916,137.861804 422.90759,136.261018 422.90759,134.539 C422.90759,132.856089 422.487952,131.416946 421.651265,130.226786 C420.814578,129.036625 419.804337,128.066768 418.621837,127.314607" id="Fill-6"></path>
                    <path d="M3.60578313,87.162 L426.92006,87.162 L426.92006,91.2969286 L3.60578313,91.2969286 L3.60578313,87.162 Z" id="Fill-7"></path>
                    <path d="M43.1126807,59.7804821 L43.186506,42.61375 C42.1089157,42.4169107 41.2022892,42.4169107 40.4666265,42.61375 L37.0097892,56.0809464 L14.9541566,56.0809464 L14.9541566,30.5518036 L26.7908133,30.7734107 L28.408494,38.4696964 C29.290512,38.7656071 30.1725301,38.7656071 31.0545482,38.4696964 C30.9081928,35.3737143 30.8343675,32.1786607 30.8343675,28.8871429 C30.8343675,25.2997143 30.931506,22.1294286 31.1283735,19.3775893 C30.049488,19.1820536 29.1428614,19.1820536 28.408494,19.3775893 L26.7182831,26.6306607 L14.9541566,26.8509643 L14.9541566,4.57814286 L34.8040964,4.57814286 L38.2596386,18.0453393 C38.9953012,18.2434821 39.9019277,18.2434821 40.9808133,18.0453393 L40.9056928,0.877303571 L11.2033133,0.877303571 L1.13069277,0.657 C0.836686747,1.51866071 0.836686747,2.38292857 1.13069277,3.24589286 L7.08722892,4.06323214 L7.08722892,47.8410714 C7.08722892,51.15475 6.9875,54.07475 6.79192771,56.5971607 L0.690331325,57.4145 C0.396325301,58.2761607 0.396325301,59.1404286 0.690331325,60.0033929 L11.2033133,59.7804821 L43.1126807,59.7804821" id="Fill-8"></path>
                    <path d="M71.4188554,60.5209107 C67.2030422,62.4945179 64.3717771,63.9493036 62.9263554,64.887875 C61.4809337,65.8238393 60.2440361,67.0074821 59.2143675,68.4401071 C59.8023795,69.3278393 60.5613554,70.0174286 61.4925904,70.5114821 C64.0907229,68.6356429 66.6655422,67.6996786 69.2131627,67.6996786 C70.8308434,67.6996786 72.8396687,68.1924286 75.2422289,69.1792321 L88.2549096,75.4689643 C90.9993976,76.6030714 93.5975301,77.170125 96.0493072,77.170125 C101.490361,77.170125 105.728193,75.2212857 108.767982,71.3249107 C107.933886,70.3381071 107.17491,69.6719821 106.489759,69.3278393 C104.234849,70.9051607 101.881506,71.695125 99.4310241,71.695125 C96.7344578,71.695125 93.9640663,71.0772321 91.1237349,69.8453571 L78.1822892,64.3690536 C76.418253,63.6299286 74.9236145,63.135875 73.6983735,62.8895 C73.8460241,62.7904286 74.1996084,62.6183571 74.7643072,62.3719821 C75.3277108,62.1243036 75.7434639,61.9391964 76.0128614,61.8166607 C76.282259,61.6928214 76.6630422,61.5689821 77.1539157,61.4464464 C77.643494,61.3226071 78.109759,61.2613393 78.5514157,61.2613393 C87.1281024,61.2613393 94.1855422,58.2031607 99.7250301,52.0855 C105.263223,45.9691429 108.033614,38.4696964 108.033614,29.5897679 C108.033614,25.741625 107.408042,22.0538214 106.159488,18.5263571 C104.908343,15.0001964 103.108042,11.7934107 100.754699,8.906 C98.4026506,6.01989286 95.3136446,3.71517857 91.4902711,1.98794643 C87.6668976,0.262017857 83.3539458,-0.60225 78.5514157,-0.60225 C72.964006,-0.60225 67.9011446,0.866875 63.368012,3.80121429 C58.8348795,6.73685714 55.3288253,10.6215 52.8537349,15.4551429 C50.3786446,20.2913929 49.141747,25.5447857 49.141747,31.2179286 C49.141747,38.12425 51.0780422,44.36575 54.9506325,49.9398214 C58.8206325,55.5151964 64.3109036,59.0413571 71.4188554,60.5209107 L71.4188554,60.5209107 Z M63.1840964,10.867875 C66.6655422,5.93516071 71.7607831,3.46880357 78.4775904,3.46880357 C83.1324699,3.46880357 87.0542771,4.68894643 90.2417169,7.13053571 C93.4265663,9.57342857 95.7190361,12.6798393 97.115241,16.4549821 C98.5114458,20.2288214 99.2108434,24.50975 99.2108434,29.2938571 C99.2108434,34.3256429 98.5114458,38.8894464 97.115241,42.9839643 C95.7190361,47.0784821 93.4136145,50.470375 90.2028614,53.1583393 C86.9934036,55.8476071 83.083253,57.1915893 78.4775904,57.1915893 C73.9185542,57.1915893 70.0459639,55.8593393 66.8598193,53.1948393 C63.6736747,50.5316429 61.3941566,47.1645179 60.0225602,43.0947679 C58.6496687,39.0250179 57.9632229,34.4494821 57.9632229,29.3668571 C57.9632229,21.9677857 59.7026506,15.8005893 63.1840964,10.867875 L63.1840964,10.867875 Z" id="Fill-9"></path>
                    <path d="M118.031114,4.133625 L118.031114,41.2071964 C118.031114,54.576625 125.333343,61.2613393 139.940392,61.2613393 C147.685572,61.2613393 153.100723,59.558875 156.188434,56.1565536 C159.27744,52.751625 160.918434,47.5477679 161.114006,40.5410714 L161.114006,12.9405536 C161.114006,9.042875 161.21244,6.15676786 161.409307,4.28223214 L166.040873,3.39319643 L166.040873,0.73 C162.902651,0.877303571 160.405542,0.951607143 158.541777,0.951607143 C156.286867,0.951607143 153.810482,0.852535714 151.116506,0.657 L151.116506,3.39319643 L157.071747,4.133625 L157.071747,40.9855893 C157.071747,46.4618929 156.004518,50.4208393 153.872651,52.8624286 C151.740783,55.3040179 147.904458,56.5254643 142.366265,56.5254643 C136.486145,56.5254643 132.269036,55.3548571 129.721416,53.0097321 C127.1725,50.6685179 125.896747,46.7330357 125.896747,41.2071964 L125.896747,12.9405536 C125.896747,9.042875 125.995181,6.15676786 126.192048,4.28223214 L132.293645,3.39319643 C132.588946,2.50546429 132.588946,1.61773214 132.293645,0.73 C129.1075,0.877303571 125.725783,0.951607143 122.148494,0.951607143 C118.128253,0.951607143 114.769849,0.852535714 112.075873,0.657 C111.879006,1.74157143 111.879006,2.65407143 112.075873,3.39319643 L118.031114,4.133625" id="Fill-10"></path>
                    <path d="M182.730572,59.7804821 C186.357078,59.7804821 189.715482,59.8560893 192.801898,60.0033929 C192.998765,58.8914464 192.998765,57.9541786 192.801898,57.1915893 L186.847952,56.4524643 L186.847952,12.9275179 C186.847952,9.03505357 186.94509,6.15416071 187.140663,4.28092857 L193.243554,3.39319643 C193.538855,2.50546429 193.538855,1.61773214 193.243554,0.73 C190.05741,0.877303571 186.675693,0.951607143 183.097108,0.951607143 C179.078163,0.951607143 175.721054,0.852535714 173.024488,0.657 C172.828916,1.74157143 172.828916,2.65407143 173.024488,3.39319643 L178.981024,4.13232143 L178.981024,47.6585714 C178.981024,51.5510357 178.881295,54.4319286 178.687018,56.3051607 L172.584127,57.1915893 C172.291416,58.1053929 172.291416,59.0178929 172.584127,59.9290893 C176.701506,59.8300179 180.083223,59.7804821 182.730572,59.7804821" id="Fill-11"></path>
                    <path d="M210.668916,59.7804821 C212.432952,59.7804821 215.422229,59.8300179 219.639337,59.9290893 C219.933343,59.0178929 219.933343,58.1053929 219.639337,57.1915893 L212.800783,56.3051607 C212.605211,54.4371429 212.506777,51.5601607 212.506777,47.6742143 L212.506777,15.9491964 C212.506777,12.7528393 212.383735,10.0218571 212.140241,7.76016071 C214.198283,11.0112679 215.986928,13.6470893 217.50747,15.6663214 L249.929729,59.7804821 L253.826928,59.7804821 L253.826928,4.42823214 L260.517831,3.69041071 C260.712108,2.92782143 260.712108,1.98925 260.517831,0.877303571 C257.772048,1.07544643 254.806084,1.17451786 251.621235,1.17451786 C248.729096,1.17451786 245.739819,1.10021429 242.650813,0.951607143 C242.356807,1.86280357 242.356807,2.77530357 242.650813,3.69041071 L249.489367,4.57683929 C249.68494,6.44876786 249.783373,9.32966071 249.783373,13.2195179 L249.783373,39.9622857 C249.783373,42.5238036 249.90512,45.2821607 250.151205,48.2373571 C249.806687,47.6950714 249.353373,46.9064107 248.791265,45.8687679 C248.226566,44.8337321 247.71238,43.9446964 247.246114,43.2055714 C246.781145,42.4651429 246.35244,41.8250893 245.96,41.2815 L216.476506,0.877303571 L202.06762,0.877303571 C201.773614,1.74157143 201.773614,2.60583929 202.06762,3.46880357 L208.169217,4.35392857 C208.363494,6.22325 208.463223,9.10153571 208.463223,12.9874821 L208.463223,56.4537679 L201.773614,57.1915893 C201.575452,57.9541786 201.575452,58.8914464 201.773614,60.0033929 C204.810813,59.8560893 207.776777,59.7804821 210.668916,59.7804821" id="Fill-12"></path>
                    <path d="M273.088855,51.7517857 C275.442199,54.6378929 278.528614,56.9452143 282.353283,58.6711429 C286.175361,60.3970714 290.463705,61.2613393 295.219608,61.2613393 C303.796295,61.2613393 310.853735,58.2031607 316.393223,52.0855 C321.932711,45.9691429 324.701807,38.4696964 324.701807,29.5897679 C324.701807,25.741625 324.07753,22.0538214 322.827681,18.5263571 C321.577831,15.0001964 319.776235,11.7934107 317.422892,8.906 C315.070843,6.01989286 311.981837,3.71517857 308.159759,1.98794643 C304.336386,0.262017857 300.022139,-0.60225 295.219608,-0.60225 C289.632199,-0.60225 284.569337,0.866875 280.0375,3.80121429 C275.503072,6.73685714 271.998313,10.6215 269.523223,15.4551429 C267.048133,20.2913929 265.80994,25.5447857 265.80994,31.2179286 C265.80994,35.0165357 266.435512,38.6678393 267.685361,42.1692321 C268.935211,45.6732321 270.735512,48.8669821 273.088855,51.7517857 L273.088855,51.7517857 Z M279.853584,10.867875 C283.333735,5.93516071 288.430271,3.46880357 295.145783,3.46880357 C299.801958,3.46880357 303.72247,4.68894643 306.90991,7.13053571 C310.094759,9.57342857 312.387229,12.6798393 313.784729,16.4549821 C315.180934,20.2288214 315.879036,24.50975 315.879036,29.2938571 C315.879036,34.3256429 315.180934,38.8894464 313.784729,42.9839643 C312.387229,47.0784821 310.081807,50.470375 306.872349,53.1583393 C303.662892,55.8476071 299.752741,57.1915893 295.145783,57.1915893 C290.588042,57.1915893 286.714157,55.8593393 283.529307,53.1948393 C280.343163,50.5316429 278.063645,47.1645179 276.692048,43.0947679 C275.319157,39.0250179 274.632711,34.4494821 274.632711,29.3668571 C274.632711,21.9677857 276.372139,15.8005893 279.853584,10.867875 L279.853584,10.867875 Z" id="Fill-13"></path>
                    <path d="M331.980723,4.133625 L350.139157,30.7004107 L336.022982,49.7390714 C334.602169,51.6579286 332.616657,53.846625 330.067741,56.3051607 L324.700512,57.1915893 C324.406506,58.1053929 324.406506,59.0178929 324.700512,59.9290893 C328.819187,59.8300179 331.660813,59.7804821 333.229277,59.7804821 C335.730271,59.7804821 338.523976,59.8560893 341.611687,60.0033929 C341.805964,58.8914464 341.805964,57.9541786 341.611687,57.1915893 L335.655151,56.4537679 L352.418675,34.1040357 L362.198584,48.2673393 C364.698283,51.7583036 366.36259,54.412375 367.197982,56.2321607 L359.69759,57.2645893 C359.451506,58.2318393 359.47741,59.1443393 359.772711,60.0033929 C361.977108,59.80525 365.138645,59.7074821 369.256024,59.7074821 C371.951295,59.7074821 376.975301,59.7804821 384.328042,59.9290893 C384.475693,58.9188214 384.449789,57.9815536 384.254217,57.1172857 L378.15262,56.5267679 L357.419367,26.7779643 L369.40238,10.867875 C371.4125,8.203375 373.642801,6.00946429 376.093283,4.28223214 L380.724849,3.39319643 C381.020151,2.50546429 381.020151,1.61773214 380.724849,0.73 C377.538705,0.877303571 374.695783,0.951607143 372.19738,0.951607143 C369.256024,0.951607143 366.436416,0.852535714 363.74244,0.657 C363.545572,1.74157143 363.545572,2.65407143 363.74244,3.39319643 L369.697681,4.133625 L355.213675,23.5959464 L345.35994,9.31401786 C344.331566,7.93353571 343.375723,6.42791071 342.493705,4.79975 L349.771325,3.39319643 C350.067922,2.50546429 350.067922,1.61773214 349.771325,0.73 C346.634398,0.877303571 342.664669,0.951607143 337.862139,0.951607143 C332.664578,0.951607143 328.719458,0.852535714 326.025482,0.657 C325.828614,1.74157143 325.828614,2.65407143 326.025482,3.39319643 L331.980723,4.133625" id="Fill-14"></path>
                    <path d="M426.456386,42.61375 L422.999548,56.0809464 L400.943916,56.0809464 L400.943916,30.5518036 L412.780572,30.7734107 L414.398253,38.4696964 C415.280271,38.7656071 416.162289,38.7656071 417.044307,38.4696964 C416.899247,35.3737143 416.824127,32.1786607 416.824127,28.8871429 C416.824127,25.2997143 416.921265,22.1294286 417.119428,19.3775893 C416.039247,19.1820536 415.13262,19.1820536 414.398253,19.3775893 L412.708042,26.6306607 L400.943916,26.8509643 L400.943916,4.57814286 L420.795151,4.57814286 L424.250693,18.0453393 C424.986355,18.2434821 425.891687,18.2434821 426.970572,18.0453393 L426.896747,0.877303571 L397.194367,0.877303571 L387.120452,0.657 C386.827741,1.51866071 386.827741,2.38292857 387.120452,3.24589286 L393.076988,4.06323214 L393.076988,47.8410714 C393.076988,51.15475 392.978554,54.07475 392.781687,56.5971607 L386.68009,57.4145 C386.386084,58.2761607 386.386084,59.1404286 386.68009,60.0033929 L397.194367,59.7804821 L429.103735,59.7804821 L429.176265,42.61375 C428.098675,42.4169107 427.192048,42.4169107 426.456386,42.61375" id="Fill-15"></path>
                </g>
            </g>
        </g>
    </g>
</svg>